<?xml version="1.0" encoding="UTF-8" standalone="no"?>
<!-- Created with Inkscape (http://www.inkscape.org/) -->

<svg
   xmlns:dc="http://purl.org/dc/elements/1.1/"
   xmlns:cc="http://creativecommons.org/ns#"
   xmlns:rdf="http://www.w3.org/1999/02/22-rdf-syntax-ns#"
   xmlns:svg="http://www.w3.org/2000/svg"
   xmlns="http://www.w3.org/2000/svg"
   xmlns:sodipodi="http://sodipodi.sourceforge.net/DTD/sodipodi-0.dtd"
   xmlns:inkscape="http://www.inkscape.org/namespaces/inkscape"
   width="900"
   height="900"
   id="svg2"
   version="1.1"
   inkscape:version="0.91 r13725"
   sodipodi:docname="9dotsM.svg">
  <defs
     id="defs4">
    <font
       horiz-adv-x="900"
       id="9dotsMin"
       inkscape:label="9dots"
       horiz-origin-x="0"
       horiz-origin-y="0"
       vert-origin-x="45"
       vert-origin-y="90"
       vert-adv-y="90">
      <font-face
         units-per-em="900"
         id="font-face5"
         font-family="9dotsM" />
      <missing-glyph
         d="m 0,1000 0,-300 300,0 0,300 -300,0 z m 600,0 0,-300 300,0 0,300 -300,0 z M 0,400 0,100 l 300,0 0,300 -300,0 z m 600,0 0,-300 300,0 0,300 -300,0 z"
         id="missing-glyph4751" />
      <glyph
         glyph-name="SP"
         id="glyph3750"
         horiz-adv-x="300"
         unicode=" "
         d="m Z" />
      <glyph
         glyph-name="!"
         id="glyph4772"
         unicode="!"
         horiz-adv-x="600"
         d="m 0,1000 0,-900 300,0 0,299.99609 300,0 L 600,1000 0,1000 Z" />
      <glyph
         glyph-name="&quot;"
         id="glyph4794"
         unicode="&quot;"
         d="m 0,1000 0,-600 300,0 0,600 -300,0 z m 599.99805,0 0,-600 300,0 0,600 -300,0 z" />
      <glyph
         glyph-name="#"
         id="glyph4814"
         unicode="#"
         d="m 899.99219,1000 -599.9961,-0.008 0,-299.9961 L 0,699.99609 0,100 l 599.99414,0 0,299.99805 299.99805,0 0,600.00195 z" />
      <glyph
         glyph-name="$"
         id="glyph4840"
         unicode="$"
         d="m 0,1000 0,-600 300,0 0,-300 600,0 0,600 -300,0 0,300 -600,0 z" />
      <glyph
         glyph-name="%"
         id="glyph4869"
         unicode="%"
         d="m 0,1000 0,-599.99805 600,0 0,-0.002 0,-300 300,0 0,600 -600,0 0,300 z" />
      <glyph
         glyph-name="&amp;"
         id="glyph4891"
         unicode="&amp;"
         d="M 300,1000 300,700 0,700 0,100.00195 900,100 l 0,900 z" />
      <glyph
         glyph-name="'"
         id="glyph4918"
         unicode="'"
         horiz-adv-x="300"
         d="m 300.00586,999.99219 0,-299.99805 -299.9980475,0 0,-299.99609 299.9980475,0 0,299.99414 299.99609,0 0,300 -299.99609,0 z" />
      <glyph
         glyph-name="("
         id="glyph4943"
         unicode="("
         horiz-adv-x="600"
         d="m 0,1000 0,-900 600,0 0,300 -300,0 0,300 300,0 0,300 z" />
      <glyph
         glyph-name=")"
         id="glyph4945"
         unicode=")"
         horiz-adv-x="600"
         d="m 0,1000 0,-300 300,0 0,-300 -300,0 0,-300 600,0 0,900 z" />
      <glyph
         glyph-name="*"
         id="glyph4999"
         unicode="*"
         d="m 300,1000 0,-300.00391 -300,0 L 0,100 l 900,0 0,599.99609 -300,0 L 600,1000 Z" />
      <glyph
         glyph-name="+"
         id="glyph5012"
         unicode="+"
         d="m 300,1000 0,-300 -300,0 0,-300 300,0 0,-300 300,0 0,300 300,0 0,300 -300,0 0,300 -300,0 z" />
      <glyph
         glyph-name=","
         id="glyph5047"
         unicode=","
         horiz-adv-x="300"
         d="m 0,700 300,0 0,-600 -300,0 z" />
      <glyph
         glyph-name="-"
         id="glyph5070"
         unicode="-"
         d="m 0,699.98828 0,-300 900,0 0,300 -900,0 z" />
      <glyph
         glyph-name="."
         id="glyph5086"
         unicode="."
         horiz-adv-x="300"
         d="M 0.00366,399.99634 300,399.99634 300,100 0.00366,100 Z" />
      <glyph
         glyph-name="/"
         id="glyph5120"
         unicode="/"
         d="m 600,1000 0,-300 300,0 0,300 -300,0 z m 0,-300 -300,0 0,-300 300,0 0,300 z M 300,400 0,400 0,100 l 300,0 0,300 z" />
      <glyph
         glyph-name="0"
         id="glyph5148"
         unicode="0"
         d="m 300,1000 0,-300 300,0 0,300 -300,0 z m 300,-300 0,-300 300,0 0,300 -300,0 z m 0,-300 -300,0 0,-300 300,0 0,300 z m -300,0 0,300 -300,0 0,-300 300,0 z" />
      <glyph
         glyph-name="1"
         id="glyph5173"
         unicode="1"
         d="m 0,1000 0,-300 300,0 0,-300 -300,0 0,-300 900,0 0,300 -300,0 0,600 z" />
      <glyph
         glyph-name="2"
         id="glyph5198"
         unicode="2"
         d="m 0,1000 0,-300 300,0 0,-600 600,0 0,300 -300,0 0,600 z" />
      <glyph
         glyph-name="3"
         id="glyph5223"
         unicode="3"
         d="m 0,1000 0,-300 300,0 0,-300 -300,0 0,-300 900,0 0,900 z" />
      <glyph
         glyph-name="4"
         id="glyph5248"
         unicode="4"
         d="m 0,1000 0,-600 600,0 0,-300 300,0 0,900 -300,0 0,-300 -300,0 0,300 z" />
      <glyph
         glyph-name="5"
         id="glyph5285"
         unicode="5"
         d="m 0,1000 0,-900 600,0 0,600 300,0 0,300 z" />
      <glyph
         glyph-name="6"
         id="glyph5307"
         unicode="6"
         d="m 0,1000 0,-900 900,0 0,600 -600,0 0,300 z" />
      <glyph
         glyph-name="7"
         id="glyph5329"
         unicode="7"
         d="m 0,1000 0,-300 600,0 0,-600 300,0 0,900 z" />
      <glyph
         glyph-name="8"
         id="glyph5382"
         unicode="8"
         d="m 0,1000 0,-900 900,0 0,900 -900,0 z" />
      <glyph
         glyph-name="9"
         id="glyph5422"
         unicode="9"
         d="m 0,1000 0,-600 300,0 0,-300 600,0 0,900 z" />
      <glyph
         glyph-name=":"
         id="glyph5447"
         unicode=":"
         horiz-adv-x="300"
         d="m 0,1000 0,-300 300,0 0,300 -300,0 z m 0,-600 0,-300 300,0 0,300 -300,0 z" />
      <glyph
         glyph-name=";"
         id="glyph5469"
         unicode=";"
         horiz-adv-x="600"
         d="m 300,1000 0,-300 300,0 0,300 -300,0 z M 0,400 0,100 l 600,0 0,300 -600,0 z" />
      <glyph
         glyph-name="&lt;"
         id="glyph5524"
         horiz-adv-x="600"
         d="m 300,1000 0,-300 -300,0 0,-300 300,0 0,299.99805 299.99805,0 0,300.00195 L 300,1000 Z m 0,-600 0,-300 299.99805,0 0,300 L 300,400 Z"
         unicode="&lt;" />
      <glyph
         glyph-name="="
         id="glyph5546"
         unicode="="
         d="m 0,1000 0,-300 900,0 0,300 -900,0 z m 0,-600 0,-300 900,0 0,300 -900,0 z" />
      <glyph
         glyph-name="&gt;"
         id="glyph5559"
         unicode="&gt;"
         horiz-adv-x="600"
         d="m 0,1000 0,-300 300,0 0,300 -300,0 z m 300,-300 0,-300 300,0 0,300 -300,0 z m 0,-300 -300,0 0,-300 300,0 0,300 z" />
      <glyph
         glyph-name="?"
         id="glyph5598"
         unicode="?"
         d="m 0,1000 0,-299.99805 599.99609,0 0,-300.0039 299.9961,0 0,600.00195 z m 599.99609,-600.00195 -299.99804,0 0,-299.99805 299.99804,0 z" />
      <glyph
         glyph-name="@"
         id="glyph5632"
         unicode="@"
         d="m 300,1000 0,-300 300,0 0,-299.99219 300,0 L 900,1000 Z m 0,-300 -300,0 0,-600 600,0 0,300 -300,0 0,0.008 z" />
      <glyph
         glyph-name="A"
         id="glyph5634"
         unicode="A"
         d="m 300,1000 0,-300 300,0 0,300 -300,0 z m 300,-300 0,-600 300,0 0,600 -300,0 z m -300,0 -300,0 0,-600 300,0 0,600 z" />
      <glyph
         glyph-name="B"
         id="glyph5679"
         unicode="B"
         d="m 0,1000 0,-900 900,0 0,600 -300,0 0,300 z" />
      <glyph
         glyph-name="C"
         id="glyph5704"
         unicode="C"
         d="m 0,1000 0,-900 900,0 0,300 -600,0 0,300 600,0 0,300 z" />
      <glyph
         glyph-name="D"
         id="glyph5732"
         unicode="D"
         d="m 0,1000 0,-900 900,0 0,600 -300,0 0,-300 -300,0 0,300 300,0 0,300 z" />
      <glyph
         glyph-name="E"
         id="glyph5757"
         unicode="E"
         d="m 0,1000 0,-900 900,0 0,300 -300,0 0,300 300,0 0,300 z" />
      <glyph
         glyph-name="F"
         id="glyph5782"
         unicode="F"
         d="m 0,1000 0,-900 300,0 0,300 300,0 0,300 300,0 0,300 z" />
      <glyph
         glyph-name="G"
         id="glyph5804"
         unicode="G"
         d="m 300,1000 0,-300 300,0 0,-300 -300,0 0,300 -300,0 0,-600 900,0 0,900 -600,0 z" />
      <glyph
         glyph-name="H"
         id="glyph5829"
         unicode="H"
         d="m 0,1000 0,-900 300,0 0,300 300,0 0,-300 300,0 0,900 -300,0 0,-300 -300,0 0,300 -300,0 z" />
      <glyph
         glyph-name="I"
         id="glyph5852"
         unicode="I"
         horiz-adv-x="300"
         d="m 0,1000 0,-899.99805 300,0 L 300,1000 0,1000 Z" />
      <glyph
         glyph-name="J"
         id="glyph5877"
         unicode="J"
         d="m 0,1000 0,-300 300,0 0,-300 -300,0 0,-300 600,0 0,600 300,0 0,300 z" />
      <glyph
         glyph-name="K"
         id="glyph5905"
         unicode="K"
         d="m 0,1000 0,-900 300,0 0,300 300,0 0,300 -300,0 0,300 -300,0 z m 600,-300 300,0 0,300 -300,0 0,-300 z m 0,-300 0,-300 300,0 0,300 -300,0 z" />
      <glyph
         glyph-name="L"
         id="glyph5927"
         unicode="L"
         d="m 0,1000 0,-900 900,0 0,300 -600,0 0,600 z" />
      <glyph
         glyph-name="M"
         id="glyph5952"
         unicode="M"
         d="m 0,1000 0,-900 300,0 0,300 300,0 0,-300 300,0 0,900 z" />
      <glyph
         glyph-name="N"
         id="glyph5977"
         unicode="N"
         d="m 0,1000 0,-900 300,0 0,600 300,0 0,300 z m 600,-300 0,-600 300,0 0,600 z" />
      <glyph
         glyph-name="O"
         id="glyph6005"
         unicode="O"
         d="m 0,1000 0,-900 300,0 600,0 0,900 z m 300,-300 300,0 0,-300 -300,0 z" />
      <glyph
         glyph-name="P"
         id="glyph6027"
         unicode="P"
         d="m 0,1000 0,-900 300,0 0,300 600,0 0,600 z" />
      <glyph
         glyph-name="Q"
         id="glyph6049"
         unicode="Q"
         d="m 0,1000 0,-600 600,0 0,-300 300,0 0,900 z" />
      <glyph
         glyph-name="R"
         id="glyph6074"
         unicode="R"
         d="m 0,1000 0,-900 600,0 0,300 300,0 0,600 z" />
      <glyph
         glyph-name="S"
         id="glyph6099"
         unicode="S"
         d="m 300,1000 0,-600 -300,0 0,-300 600,0 0,600 300,0 0,300 z" />
      <glyph
         glyph-name="T"
         id="glyph6121"
         unicode="T"
         d="m 0,1000 0,-300 300,0 0,-600 300,0 0,600 300,0 0,300 -900,0 z" />
      <glyph
         glyph-name="U"
         id="glyph6146"
         unicode="U"
         d="m 0,1000 0,-900 900,0 0,900 -300,0 0,-600 -300,0 0,600 z" />
      <glyph
         glyph-name="V"
         id="glyph6171"
         unicode="V"
         d="m 0,1000 0,-600 300,0 0,600 -300,0 z m 300,-600 0,-300 300,0 0,300 -300,0 z m 300,0 300,0 0,600 -300,0 0,-600 z" />
      <glyph
         glyph-name="W"
         id="glyph6196"
         unicode="W"
         d="m 0,1000 0,-900 900,0 0,900 -300,0 0,-300 -300,0 0,300 z" />
      <glyph
         glyph-name="X"
         id="glyph6227"
         unicode="X"
         d="m 0,1000 0,-300 300,0 0,300 -300,0 z m 300,-300 0,-300 300,0 0,300 -300,0 z m 300,0 300,0 0,300 -300,0 0,-300 z m 0,-300 0,-300 300,0 0,300 -300,0 z m -300,0 -300,0 0,-300 300,0 0,300 z" />
      <glyph
         glyph-name="Y"
         id="glyph6252"
         unicode="Y"
         d="m 0,1000 0,-300 300,0 0,300 -300,0 z m 300,-300 0,-600 300,0 0,600 -300,0 z m 300,0 300,0 0,300 -300,0 0,-300 z" />
      <glyph
         glyph-name="Z"
         id="glyph6298"
         unicode="Z"
         d="m 0,1000 0,-299.99023 900,0 L 900,1000 0,1000 Z m 300,-300 0,-300 -300,0 0,-300 900,0 0,300 -300,0 0,300 -300,0 z" />
      <glyph
         glyph-name="["
         id="glyph6320"
         unicode="["
         horiz-adv-x="600"
         d="m 0,1000 0,-900 300,0 0,600 300,0 0,300 -600,0 z" />
      <glyph
         glyph-name="\"
         id="glyph6345"
         unicode="\"
         d="m 0,1000 0,-300 300,0 0,300 -300,0 z m 300,-300 0,-300 300,0 0,300 -300,0 z m 300,-300 0,-300 300,0 0,300 -300,0 z" />
      <glyph
         glyph-name="]"
         id="glyph6367"
         unicode="]"
         horiz-adv-x="600"
         d="m 300,1000 0,-600 -300,0 0,-300 600,0 0,900 -300,0 z" />
      <glyph
         glyph-name="^"
         id="glyph6369"
         unicode="^"
         d="m 300,1000 0,-300 300,0 0,300 -300,0 z m 300,-300 0,-300 300,0 0,300 -300,0 z m -300,0 -300,0 0,-300 300,0 0,300 z" />
      <glyph
         glyph-name="_"
         id="glyph6428"
         unicode="_"
         d="m 0,400 0,-300 900,0 0,300 -900,0 z" />
      <glyph
         glyph-name="`"
         id="glyph6474"
         unicode="`"
         horiz-adv-x="600"
         d="m 0,1000 0,-300 300,0 0,300 -300,0 z m 300,-300 0,-300 300,0 0,300 -300,0 z" />
      <glyph
         glyph-name="a"
         id="glyph6476"
         unicode="a"
         d="m 300,1000 0,-300 300,0 0,300 -300,0 z m 300,-300 0,-600 300,0 0,600 -300,0 z m -300,0 -300,0 0,-600 300,0 0,600 z" />
      <glyph
         glyph-name="b"
         id="glyph6478"
         unicode="b"
         d="m 0,1000 0,-900 900,0 0,600 -300,0 0,300 z" />
      <glyph
         glyph-name="c"
         id="glyph6480"
         unicode="c"
         d="m 0,1000 0,-900 900,0 0,300 -600,0 0,300 600,0 0,300 z" />
      <glyph
         glyph-name="d"
         id="glyph6482"
         unicode="d"
         d="m 0,1000 0,-900 900,0 0,600 -300,0 0,-300 -300,0 0,300 300,0 0,300 z" />
      <glyph
         glyph-name="e"
         id="glyph6484"
         unicode="e"
         d="m 0,1000 0,-900 900,0 0,300 -300,0 0,300 300,0 0,300 z" />
      <glyph
         glyph-name="f"
         id="glyph6486"
         unicode="f"
         d="m 0,1000 0,-900 300,0 0,300 300,0 0,300 300,0 0,300 z" />
      <glyph
         glyph-name="g"
         id="glyph6488"
         unicode="g"
         d="m 300,1000 0,-300 300,0 0,-300 -300,0 0,300 -300,0 0,-600 900,0 0,900 -600,0 z" />
      <glyph
         glyph-name="h"
         id="glyph6490"
         unicode="h"
         d="m 0,1000 0,-900 300,0 0,300 300,0 0,-300 300,0 0,900 -300,0 0,-300 -300,0 0,300 -300,0 z" />
      <glyph
         glyph-name="i"
         id="glyph6492"
         unicode="i"
         horiz-adv-x="300"
         d="m 0,1000 0,-899.99805 300,0 L 300,1000 0,1000 Z" />
      <glyph
         glyph-name="j"
         id="glyph6494"
         unicode="j"
         d="m 0,1000 0,-300 300,0 0,-300 -300,0 0,-300 600,0 0,600 300,0 0,300 z" />
      <glyph
         glyph-name="k"
         id="glyph6496"
         unicode="k"
         d="m 0,1000 0,-900 300,0 0,300 300,0 0,300 -300,0 0,300 -300,0 z m 600,-300 300,0 0,300 -300,0 0,-300 z m 0,-300 0,-300 300,0 0,300 -300,0 z" />
      <glyph
         glyph-name="l"
         id="glyph6498"
         unicode="l"
         d="m 0,1000 0,-900 900,0 0,300 -600,0 0,600 z" />
      <glyph
         glyph-name="m"
         id="glyph6500"
         unicode="m"
         d="m 0,1000 0,-900 300,0 0,300 300,0 0,-300 300,0 0,900 z" />
      <glyph
         glyph-name="n"
         id="glyph6502"
         unicode="n"
         d="m 0,1000 0,-900 300,0 0,600 300,0 0,300 z m 600,-300 0,-600 300,0 0,600 z" />
      <glyph
         glyph-name="o"
         id="glyph6504"
         unicode="o"
         d="m 0,1000 0,-900 300,0 600,0 0,900 z m 300,-300 300,0 0,-300 -300,0 z" />
      <glyph
         glyph-name="p"
         id="glyph6506"
         unicode="p"
         d="m 0,1000 0,-900 300,0 0,300 600,0 0,600 z" />
      <glyph
         glyph-name="q"
         id="glyph6508"
         unicode="q"
         d="m 0,1000 0,-600 600,0 0,-300 300,0 0,900 z" />
      <glyph
         glyph-name="r"
         id="glyph6510"
         unicode="r"
         d="m 0,1000 0,-900 600,0 0,300 300,0 0,600 z" />
      <glyph
         glyph-name="s"
         id="glyph6512"
         unicode="s"
         d="m 300,1000 0,-600 -300,0 0,-300 600,0 0,600 300,0 0,300 z" />
      <glyph
         glyph-name="t"
         id="glyph6514"
         unicode="t"
         d="m 0,1000 0,-300 300,0 0,-600 300,0 0,600 300,0 0,300 -900,0 z" />
      <glyph
         glyph-name="u"
         id="glyph6516"
         unicode="u"
         d="m 0,1000 0,-900 900,0 0,900 -300,0 0,-600 -300,0 0,600 z" />
      <glyph
         glyph-name="v"
         id="glyph6518"
         unicode="v"
         d="m 0,1000 0,-600 300,0 0,600 -300,0 z m 300,-600 0,-300 300,0 0,300 -300,0 z m 300,0 300,0 0,600 -300,0 0,-600 z" />
      <glyph
         glyph-name="w"
         id="glyph6520"
         unicode="w"
         d="m 0,1000 0,-900 900,0 0,900 -300,0 0,-300 -300,0 0,300 z" />
      <glyph
         glyph-name="x"
         id="glyph6522"
         unicode="x"
         d="m 0,1000 0,-300 300,0 0,300 -300,0 z m 300,-300 0,-300 300,0 0,300 -300,0 z m 300,0 300,0 0,300 -300,0 0,-300 z m 0,-300 0,-300 300,0 0,300 -300,0 z m -300,0 -300,0 0,-300 300,0 0,300 z" />
      <glyph
         glyph-name="y"
         id="glyph6524"
         unicode="y"
         d="m 0,1000 0,-300 300,0 0,300 -300,0 z m 300,-300 0,-600 300,0 0,600 -300,0 z m 300,0 300,0 0,300 -300,0 0,-300 z" />
      <glyph
         glyph-name="z"
         id="glyph6526"
         unicode="z"
         d="m 0,1000 0,-299.99023 900,0 L 900,1000 0,1000 Z m 300,-300 0,-300 -300,0 0,-300 900,0 0,300 -300,0 0,300 -300,0 z" />
      <glyph
         glyph-name="{"
         id="glyph6551"
         unicode="{"
         d="m 300,1000 0,-300 -300,0 0,-300 300,0 0,-300 600,0 0,300 -300,0 0,300 300,0 0,300 -600,0 z" />
      <glyph
         glyph-name="|"
         id="glyph6554"
         unicode="|"
         d="m 0,1000 0,-900 300,0 0,900 -300,0 z m 600,0 0,-900 300,0 0,900 -300,0 z" />
      <glyph
         glyph-name="}"
         id="glyph6598"
         unicode="}"
         d="m 0,1000 0,-300 300,0 0,-300 -300,0 0,-300 600,0 0,300 300,0 0,300 -300,0 0,300 -600,0 z" />
      <glyph
         glyph-name="~"
         id="glyph6620"
         unicode="~"
         d="m 600.00195,1000 0,-300.00195 299.99805,0 0,300.00195 -299.99805,0 z m 0,-300.00195 -599.99609062,0 0,-299.99805 599.99609062,0 0,299.99805 z" />
    </font>
</defs>
</svg>
